# xmcd
#
# Track frame offsets:
#	150
#	15302
#	30120
#	47962
#	66460
#	81155
#	98410
#	117850
#	130285
#	147895
#	164520
#	182645
#	197750
#	219907
#	250970
#	266035
#	279582
#	293715
#	309875
#	330917
#
# Disc length: 4660 seconds
# Revision: 0
# Processed by: cddbd v1.5.2PL0 Copyright (c) Steve Scherf et al.
# Submitted via: dBpowerAMP V12.0
#
DISCID=15123214
DTITLE=Various Artist - Soul Collection CD-1, Soul Moods (1994)
DYEAR=1970
DGENRE=Soul
TTITLE0=James Brown - Sex Machine
TTITLE1=Issac Hayes - Shaft
TTITLE2=Crusaders - Street Life
TTITLE3=Love Unlimited - Love's Theme
TTITLE4=Rose Royce - Car Wash
TTITLE5=Van McCoy - The Hustle
TTITLE6=Staple Singers - Respect Yourself
TTITLE7=Johnny Nash - More Questions Than Answers
TTITLE8=Shirley Brown - Woman To Woman
TTITLE9=Billy Paul - Your Song
TTITLE10=Barry White - Cant Get Enough Of Your Love
TTITLE11=Yvonne Elliman - Love Me
TTITLE12=Bill Withers - Tender Things
TTITLE13=O'Jays - Family Reunion
TTITLE14=Isley Brothers - Highways Of My Life
TTITLE15=Sly and The Family Stone - If You Want Me To Stay
TTITLE16=Labelle - Night Birds
TTITLE17=Eddie Holman - (Hey There) Lonely Girl
TTITLE18=Millie Jackson - If Loving You Is Wrong
TTITLE19=Floaters - Float On
EXTD=
EXTT0=
EXTT1=
EXTT2=
EXTT3=
EXTT4=
EXTT5=
EXTT6=
EXTT7=
EXTT8=
EXTT9=
EXTT10=
EXTT11=
EXTT12=
EXTT13=
EXTT14=
EXTT15=
EXTT16=
EXTT17=
EXTT18=
EXTT19=
PLAYORDER=
